<?xml version="1.0" encoding="UTF-8"?>
<svg id="Layer_1" data-name="Layer 1" xmlns="http://www.w3.org/2000/svg" viewBox="0 0 198.92 23.84" preserveAspectRatio="xMinYMin meet">
  <defs>
    <style>
      .cls-1 {
        font-family: 'Open Sans';
        font-size: 16px;
        font-weight: 400;
        letter-spacing: -.03em;
      }

      .cls-1, .cls-2 {
        fill: #fff;
      }

      .cls-3 {
        fill: #f1f1f2;
      }

      .cls-3, .cls-2 {
        stroke-width: 0px;
      }
    </style>
  </defs>
  <g>
    <g>
      <g>
        <path class="cls-3" d="M21.77,12.2c-.2-.03-3.76,2-3.76,2,0,0,5.72,1.19,14.04,3.69,0,0,1.66-2.35,2.81-3.64,0,0-4.81-.9-13.1-2.05Z"/>
        <path class="cls-3" d="M15.17,11.96c2.81-.49,5.74.08,5.74.08,0,0-4.62,2.2-8.95,4.92,0,0-3.63-1.09-6.29-1.36,0,0,6.75-3.17,9.5-3.64Z"/>
        <path class="cls-3" d="M25.12,16.72s2.69.72,6.41,1.98c0,0-2.36,3.49-3.21,5.14,0,0-2.36-1.37-6.82-3.33,0,0,.95-1.01,3.61-3.79Z"/>
        <path class="cls-3" d="M12.98,17.31s1.79-1.27,4.28-2.66c0,0,2.87.57,7.06,1.82l-3.75,3.62c.04-.08-7.41-2.83-7.59-2.78Z"/>
      </g>
      <g>
        <path class="cls-3" d="M13.06,11.79l-.12.08-2.91.06-.08-.09c.46-2.37,1.13-5.86,1.63-8.23-.88,1.8-3.11,6.42-3.9,8.19l-.12.08-2.39.05-.1-.09c-.06-1.33-.31-6.79-.38-8.22-.58,2.27-1.46,5.88-2.01,8.19l-.11.08c-1.14,0-1.45.02-2.5.06l-.07-.09C.94,8.7,1.95,4.28,2.93,1.2c1.89,0,2.33,0,4.15-.05l.09.09c.04,1.82.19,4.62.29,6.45.74-1.46,2.33-5.24,3.1-6.49,1.77,0,2.21,0,4.12-.05l.07.09c-.53,3.1-1.25,7.43-1.69,10.55Z"/>
        <path class="cls-3" d="M21.79,10.2c-.69,1.69-2.91,1.04-3.84,1.05-4.18,1.17-4.57-3.46-2.44-6.21,4.61-4.06,9.22.66,6.28,5.16ZM19.63,6.46c-.85-3.61-3.71,3.55-1.62,3.71,1.09.22,1.66-2.92,1.62-3.71Z"/>
        <path class="cls-3" d="M22.35,11.15l.55-1.91.13-.05c.53,1.53,5.37,1.1,1.88-.65-4.47-2.76,1.61-6.56,4.84-4.33l.08.14c-.26.82-.32,1.06-.53,1.91l-.15.03c-.84-1.65-4.46-.72-1.63.48,5.41,3.51-2.27,6.9-5.13,4.53l-.03-.15Z"/>
        <path class="cls-3" d="M38.38,6.73c-.41,1.68-.78,3.33-1.03,5.04l-.09.09-2.8.06-.08-.09.12-.7c-6.22,4.44-7.9-9.31,4.48-7.38l.09.12-.7,2.86ZM35.65,5.73c-2.36-.98-4.15,5.5-.92,3.97l.92-3.97Z"/>
        <path class="cls-3" d="M42.15,8.93c-.32,1.48-.37,1.8-.53,2.86l-.09.08-3.22.06-.06-.11c.71-2.71,1.35-5.03,1.68-7.66l.11-.12c1.53-.2,1.89-.26,3.25-.51l.09.11c-.15.64-1.14,4.75-1.22,5.29ZM43.54,2.5l-.12.11-2.98.44-.11-.11.51-2.42.12-.11,3.04-.41.09.11-.56,2.39Z"/>
        <path class="cls-3" d="M49.33,9.46c-.3,1.09-.33,1.29-.53,2.16-9.06,3.09-6.34-11.43,1.44-7.4l.03.12-.59,2.04-.15.02c-3.44-3.4-5.07,5.86-.35,3l.15.06Z"/>
      </g>
    </g>
    <path class="cls-3" d="M52.78,4.55c.02,1.28-1.99,1.28-1.97,0-.02-1.28,1.99-1.28,1.97,0ZM50.91,4.55c-.03,1.17,1.81,1.17,1.78,0,.03-1.17-1.81-1.17-1.78,0ZM51.44,3.96c.51-.17,1.26.35.52.63l.35.54h-.11l-.35-.54h-.3v.54h-.1v-1.17ZM51.54,4.5c.82.14.79-.59,0-.45v.45Z"/>
  </g>
  <rect class="cls-2" x="61.92" width=".81" height="23.84"/>
  <text class="cls-1" transform="translate(71.87 16.04)"><tspan x="0" y="0">Digital Asset Manager</tspan></text>
</svg>