<?xml version="1.0" encoding="UTF-8"?>
<svg id="Layer_1" data-name="Layer 1" xmlns="http://www.w3.org/2000/svg" viewBox="0 0 193.12 22.93">
  <defs>
    <style>
      .cls-1 {
        letter-spacing: -.03em;
      }

      .cls-2 {
        letter-spacing: -.03em;
      }

      .cls-3, .cls-4 {
        isolation: isolate;
      }

      .cls-5 {
        letter-spacing: -.02em;
      }

      .cls-6 {
        letter-spacing: -.05em;
      }

      .cls-7 {
        letter-spacing: -.03em;
      }

      .cls-8 {
        letter-spacing: -.04em;
      }

      .cls-9 {
        letter-spacing: -.03em;
      }

      .cls-10 {
        letter-spacing: -.03em;
      }

      .cls-11 {
        letter-spacing: -.03em;
      }

      .cls-12 {
        letter-spacing: -.03em;
      }

      .cls-13 {
        letter-spacing: -.03em;
      }

      .cls-14 {
        fill: #f1f2f2;
      }

      .cls-14, .cls-15 {
        stroke-width: 0px;
      }

      .cls-16 {
        letter-spacing: 0em;
      }

      .cls-15, .cls-4 {
        fill: #fff;
      }

      .cls-4 {
        font-family: OpenSans-Regular, 'Open Sans';
        font-size: 12px;
      }

      .cls-17 {
        letter-spacing: -.03em;
      }

      .cls-18 {
        letter-spacing: -.03em;
      }

      .cls-19 {
        letter-spacing: -.03em;
      }

      .cls-20 {
        letter-spacing: -.04em;
      }
    </style>
  </defs>
  <g>
    <g>
      <g>
        <path class="cls-14" d="M20.94,11.74c-.19-.03-3.62,1.92-3.62,1.92,0,0,5.5,1.15,13.51,3.55,0,0,1.6-2.26,2.71-3.5,0,0-4.63-.86-12.6-1.97Z"/>
        <path class="cls-14" d="M14.59,11.51c2.71-.47,5.52.08,5.52.08,0,0-4.44,2.12-8.61,4.74,0,0-3.49-1.05-6.05-1.31,0,0,6.49-3.05,9.14-3.51Z"/>
        <path class="cls-14" d="M24.16,16.08s2.59.7,6.17,1.9c0,0-2.27,3.36-3.08,4.95,0,0-2.27-1.31-6.56-3.2,0,0,.91-.97,3.47-3.65Z"/>
        <path class="cls-14" d="M12.48,16.65s1.72-1.22,4.11-2.56c0,0,2.76.55,6.79,1.75l-3.6,3.48c.04-.08-7.13-2.73-7.3-2.67Z"/>
      </g>
      <g>
        <path class="cls-14" d="M12.56,11.34l-.12.07-2.8.06-.07-.09c.45-2.28,1.09-5.63,1.57-7.92-.84,1.74-2.99,6.17-3.76,7.88l-.12.07-2.3.04-.1-.09c-.06-1.28-.3-6.53-.37-7.9-.56,2.18-1.41,5.66-1.94,7.88l-.1.07c-1.09,0-1.4.01-2.4.06l-.07-.09C.9,8.37,1.88,4.12,2.82,1.15c1.82,0,2.24,0,3.99-.04l.09.09c.04,1.75.18,4.44.28,6.2.71-1.4,2.25-5.04,2.98-6.24,1.7,0,2.13,0,3.96-.04l.07.09c-.51,2.99-1.21,7.15-1.63,10.15Z"/>
        <path class="cls-14" d="M20.96,9.81c-.67,1.63-2.8,1-3.69,1.01-4.02,1.12-4.4-3.33-2.35-5.98,4.44-3.9,8.87.64,6.04,4.96ZM18.88,6.22c-.82-3.48-3.57,3.41-1.56,3.57,1.05.22,1.6-2.81,1.56-3.57Z"/>
        <path class="cls-14" d="M21.5,10.73l.53-1.83.13-.04c.51,1.47,5.17,1.06,1.81-.63-4.3-2.65,1.55-6.31,4.66-4.16l.07.13c-.25.79-.31,1.02-.51,1.83l-.14.03c-.81-1.58-4.29-.69-1.57.47,5.21,3.38-2.18,6.64-4.93,4.35l-.03-.15Z"/>
        <path class="cls-14" d="M36.92,6.48c-.4,1.62-.75,3.21-.99,4.85l-.09.09-2.69.06-.07-.09.12-.67c-5.99,4.27-7.6-8.96,4.31-7.1l.09.12-.67,2.75ZM34.3,5.52c-2.27-.94-3.99,5.3-.89,3.81l.89-3.81Z"/>
        <path class="cls-14" d="M40.54,8.59c-.31,1.43-.35,1.73-.51,2.75l-.09.07-3.1.06-.06-.1c.68-2.61,1.3-4.83,1.62-7.36l.1-.12c1.47-.19,1.82-.25,3.13-.5l.09.1c-.14.62-1.09,4.57-1.18,5.09ZM41.88,2.4l-.12.1-2.87.42-.1-.1.5-2.33.12-.1,2.92-.39.09.1-.54,2.3Z"/>
        <path class="cls-14" d="M47.45,9.1c-.29,1.05-.32,1.24-.51,2.08-8.71,2.97-6.1-10.99,1.38-7.12l.03.12-.57,1.96-.15.02c-3.31-3.27-4.88,5.63-.34,2.88l.15.06Z"/>
      </g>
    </g>
    <path class="cls-14" d="M50.77,4.37c.02,1.23-1.92,1.23-1.9,0-.02-1.23,1.92-1.23,1.9,0ZM48.97,4.37c-.03,1.12,1.74,1.13,1.71,0,.03-1.13-1.74-1.12-1.71,0ZM49.48,3.81c.49-.16,1.22.33.5.61l.33.52h-.1l-.34-.52h-.29v.52h-.1v-1.12ZM49.58,4.33c.79.13.76-.57,0-.44v.44Z"/>
  </g>
  <rect class="cls-15" x="54.33" width=".78" height="22.93"/>
  <g class="cls-3">
    <text class="cls-4" transform="translate(59.04 15.01) scale(1.15 1)"><tspan class="cls-17" x="0" y="0">D</tspan><tspan class="cls-19" x="8.32" y="0">i</tspan><tspan class="cls-18" x="10.94" y="0">g</tspan><tspan class="cls-10" x="17.12" y="0">i</tspan><tspan class="cls-5" x="19.83" y="0">t</tspan><tspan class="cls-11" x="23.93" y="0">a</tspan><tspan class="cls-7" x="30.17" y="0">l </tspan><tspan class="cls-16" x="35.6" y="0">A</tspan><tspan class="cls-12" x="43.19" y="0">s</tspan><tspan class="cls-9" x="48.61" y="0">s</tspan><tspan class="cls-13" x="53.97" y="0">e</tspan><tspan class="cls-7" x="60.34" y="0">t </tspan><tspan class="cls-8" x="67.02" y="0">M</tspan><tspan class="cls-11" x="77.35" y="0">a</tspan><tspan class="cls-20" x="83.6" y="0">n</tspan><tspan class="cls-1" x="90.49" y="0">a</tspan><tspan class="cls-6" x="96.76" y="0">g</tspan><tspan class="cls-2" x="102.72" y="0">e</tspan><tspan class="cls-7" x="109.07" y="0">r </tspan></text>
  </g>
</svg>