<?xml version="1.0" encoding="UTF-8"?>
<svg id="Layer_1" data-name="Layer 1" xmlns="http://www.w3.org/2000/svg" viewBox="0 0 346.06 74.94">
  <defs>
    <style>
      .cls-1 {
        fill: #000;
      }

      .cls-1, .cls-2, .cls-3, .cls-4, .cls-5, .cls-6 {
        stroke-width: 0px;
      }

      .cls-2 {
        fill: #a58f31;
      }

      .cls-3 {
        fill: #9caa39;
      }

      .cls-4 {
        fill: #fff;
      }

      .cls-5 {
        fill: #00544d;
      }

      .cls-7 {
        fill: #f1f1f2;
        font-family: OpenSans-Regular, 'Open Sans';
        font-size: 24px;
      }

      .cls-6 {
        fill: #a23f23;
      }
    </style>
  </defs>
  <g>
    <rect class="cls-4" width="80" height="74.94"/>
    <g>
      <path class="cls-6" d="M36.78,38.79c-.2-.03-3.84,2.04-3.84,2.04,0,0,5.85,1.22,14.36,3.77,0,0,1.7-2.4,2.88-3.72,0,0-4.92-.92-13.39-2.09Z"/>
      <path class="cls-5" d="M30.03,38.55c2.88-.5,5.87.08,5.87.08,0,0-4.72,2.25-9.16,5.04,0,0-3.71-1.11-6.43-1.39,0,0,6.9-3.24,9.72-3.73Z"/>
      <path class="cls-3" d="M40.21,43.41s2.75.74,6.56,2.02c0,0-2.41,3.57-3.28,5.26,0,0-2.41-1.4-6.97-3.4,0,0,.97-1.03,3.69-3.88Z"/>
      <path class="cls-2" d="M27.79,44.02s1.83-1.29,4.37-2.72c0,0,2.93.59,7.22,1.86l-3.83,3.7s-2.25-.94-4.15-1.63c-1.9-.69-3.61-1.21-3.61-1.21Z"/>
      <path class="cls-1" d="M27.87,38.37l-.12.08-2.97.06-.08-.09.54-2.77.36-1.89.77-3.76-2.69,5.57-1.3,2.8-.12.08-2.45.05-.11-.09-.09-2.04-.29-6.36-.42,1.66-.63,2.54-1.01,4.18-.11.08c-1.16,0-1.49.02-2.55.06l-.08-.09.94-3.41,1.07-3.94.9-3.43.09-.09c1.94,0,2.38,0,4.24-.05l.09.09.08,2.45.06,1.13.15,3.01,1.95-4.18c.25-.51,1.01-2.15,1.11-2.37l.11-.09c1.81,0,2.26,0,4.21-.05l.08.09-.59,3.47-.68,4.18-.46,3.14Z"/>
      <path class="cls-1" d="M36.8,36.74c-.4.62-.81.94-1.32,1.23,0,0-.03.02-.09.04-.04,0-.06.02-.11.01-1.27-.19-1.83-.19-2.41-.2-.56-.01-1.45-.02-2.4.15-.03,0-.06,0-.09,0-.03,0-.07-.03-.07-.03-.8-.57-1.22-1.43-1.22-2.72s.45-2.74,1.28-3.74c1.1-1.28,2.55-1.47,3.57-1.47s1.84.25,2.2.45c1.53.81,1.53,2.57,1.53,2.94,0,.56-.05,1.1-.17,1.62-.17.68-.45,1.33-.71,1.74ZM34.59,32.92c0-.61-.25-.99-.73-.99-.6,0-.91.65-.99.79-.39.74-.67,2.29-.67,2.92,0,.27,0,1.07.73,1.07.8,0,1.24-1.08,1.49-2.37.15-.74.17-1.35.17-1.42Z"/>
      <path class="cls-1" d="M37.37,37.72l.56-1.95.14-.05c.25.28.9,1.04,2.12,1.04.48,0,1.08-.16,1.08-.64,0-.42-.37-.6-.96-.9l-.32-.17c-.71-.39-1.55-.85-1.55-2.13,0-.7.28-1.36.76-1.89.56-.6,1.52-1.04,2.99-1.04,1.25,0,1.92.28,2.76.63l.08.14c-.26.84-.32,1.08-.54,1.95l-.15.03c-.12-.15-.25-.31-.4-.45-.36-.29-.93-.5-1.42-.5-.76,0-.94.36-.94.56,0,.34.4.54.79.73l.31.15c.88.47,1.83.99,1.83,2.42,0,.91-.43,1.5-.7,1.8-1.04,1.16-2.58,1.19-3.25,1.19-1.76,0-2.61-.48-3.13-.77l-.03-.15Z"/>
      <path class="cls-1" d="M53.76,33.2c-.26,1.08-.53,2.18-.73,3.26-.12.62-.23,1.26-.32,1.89l-.09.09-2.86.06-.08-.09.12-.71c-.62.62-1.45.93-2.32.93-.73,0-1.21-.28-1.45-.46-1.02-.78-1.05-2.1-1.05-2.58,0-1.89.91-3.27,1.59-3.93,1.5-1.47,3.44-1.49,4.88-1.5h2.94l.09.12-.71,2.93ZM50.98,32.18c-.48-.01-1.11-.03-1.67.44-.43.37-1.05,1.31-1.05,2.69,0,.79.36,1.25.98,1.25.34,0,.57-.16.8-.33l.94-4.06Z"/>
      <path class="cls-1" d="M57.62,35.44c-.33,1.52-.37,1.84-.54,2.93l-.09.08-3.3.06-.06-.11c.53-1.97.62-2.3,1.04-4.16l.15-.65c.33-1.48.37-1.78.53-3.02l.11-.13c1.56-.2,1.93-.26,3.33-.53l.1.11-1.07,4.52-.18.89ZM59.04,28.87l-.12.11-3.05.45-.11-.11.53-2.48.12-.11,3.11-.42.09.11-.57,2.45Z"/>
      <path class="cls-1" d="M64.97,35.99c-.31,1.11-.34,1.31-.54,2.21l-.12.11c-.57.19-1.11.34-1.9.34-2.6,0-3.87-1.55-3.87-3.81s1.61-4.84,4.91-4.84c1.44,0,2.07.4,2.46.63l.03.13-.61,2.09-.16.02c-.37-.46-.79-.73-1.38-.73-1.05,0-2.04.97-2.04,2.62,0,.87.42,1.72,1.58,1.72.74,0,1.18-.31,1.48-.54l.16.06Z"/>
      <path class="cls-1" d="M68.5,30.96c0,.56-.45,1.01-1.01,1.01s-1.01-.45-1.01-1.01.45-1.01,1.01-1.01,1.01.45,1.01,1.01ZM66.58,30.96c0,.51.4.92.91.92s.9-.41.9-.92-.39-.92-.9-.92-.91.4-.91.92ZM67.12,30.37h.45c.27,0,.39.11.39.33,0,.19-.14.29-.31.32l.35.55h-.11l-.36-.55h-.31v.55h-.1v-1.19ZM67.22,30.92h.25c.18,0,.38-.02.38-.23,0-.18-.16-.24-.3-.24h-.33v.46Z"/>
    </g>
  </g>
  <text class="cls-7" transform="translate(103.7 47.02)"><tspan x="0" y="0">Digital Asset Manager</tspan></text>
</svg>