<?xml version="1.0" encoding="UTF-8"?>
<svg id="Layer_1" data-name="Layer 1" xmlns="http://www.w3.org/2000/svg" viewBox="0 0 605.9 170.99">
  <defs>
    <style>
      .cls-1 {
        letter-spacing: -.03em;
      }

      .cls-2 {
        letter-spacing: -.01em;
      }

      .cls-3 {
        letter-spacing: -.01em;
      }

      .cls-4 {
        letter-spacing: 0em;
      }

      .cls-5 {
        letter-spacing: -.01em;
      }

      .cls-6 {
        letter-spacing: 0em;
      }

      .cls-7 {
        letter-spacing: 0em;
      }

      .cls-8 {
        font-family: HelveticaNeueLTStd-Cn, 'HelveticaNeueLTStd Cn';
        font-size: 14.76px;
      }

      .cls-8, .cls-9, .cls-10, .cls-11, .cls-12 {
        fill: #2e3192;
      }

      .cls-8, .cls-13, .cls-10, .cls-11, .cls-12 {
        isolation: isolate;
      }

      .cls-14 {
        letter-spacing: -.01em;
      }

      .cls-15 {
        letter-spacing: .01em;
      }

      .cls-16 {
        letter-spacing: 0em;
      }

      .cls-17 {
        letter-spacing: -.04em;
      }

      .cls-9 {
        stroke-width: 0px;
      }

      .cls-18 {
        letter-spacing: -.03em;
      }

      .cls-19 {
        letter-spacing: 0em;
      }

      .cls-20 {
        letter-spacing: 0em;
      }

      .cls-21 {
        letter-spacing: 0em;
      }

      .cls-22 {
        letter-spacing: -.03em;
      }

      .cls-23 {
        letter-spacing: -.01em;
      }

      .cls-24 {
        letter-spacing: -.01em;
      }

      .cls-25 {
        letter-spacing: -.03em;
      }

      .cls-26 {
        letter-spacing: 0em;
      }

      .cls-27 {
        letter-spacing: -.03em;
      }

      .cls-28 {
        letter-spacing: -.01em;
      }

      .cls-29 {
        letter-spacing: -.03em;
      }

      .cls-30 {
        letter-spacing: 0em;
      }

      .cls-31 {
        letter-spacing: -.04em;
      }

      .cls-32 {
        letter-spacing: 0em;
      }

      .cls-33 {
        letter-spacing: -.04em;
      }

      .cls-34 {
        letter-spacing: -.01em;
      }

      .cls-10 {
        font-size: 23.16px;
      }

      .cls-10, .cls-12 {
        font-family: HelveticaNeueLTStd-Roman, 'HelveticaNeueLTStd Roman';
      }

      .cls-35 {
        letter-spacing: 0em;
      }

      .cls-36 {
        letter-spacing: -.01em;
      }

      .cls-11 {
        font-family: OpenSans-Regular, 'Open Sans';
        font-size: 13.9px;
      }

      .cls-37 {
        letter-spacing: 0em;
      }

      .cls-38 {
        letter-spacing: 0em;
      }

      .cls-39 {
        letter-spacing: 0em;
      }

      .cls-40 {
        letter-spacing: 0em;
      }

      .cls-41 {
        letter-spacing: 0em;
      }

      .cls-42 {
        letter-spacing: -.02em;
      }

      .cls-43 {
        letter-spacing: -.02em;
      }

      .cls-44 {
        letter-spacing: 0em;
      }

      .cls-45 {
        letter-spacing: 0em;
      }

      .cls-46 {
        letter-spacing: 0em;
      }

      .cls-47 {
        letter-spacing: 0em;
      }

      .cls-48 {
        letter-spacing: -.03em;
      }

      .cls-49 {
        letter-spacing: 0em;
      }

      .cls-50 {
        letter-spacing: 0em;
      }

      .cls-51 {
        letter-spacing: -.03em;
      }

      .cls-52 {
        letter-spacing: -.03em;
      }

      .cls-53 {
        letter-spacing: -.05em;
      }

      .cls-54 {
        letter-spacing: -.01em;
      }

      .cls-55 {
        letter-spacing: -.01em;
      }

      .cls-56 {
        letter-spacing: 0em;
      }

      .cls-57 {
        letter-spacing: 0em;
      }

      .cls-58 {
        letter-spacing: -.01em;
      }

      .cls-59 {
        letter-spacing: 0em;
      }

      .cls-60 {
        letter-spacing: -.01em;
      }

      .cls-61 {
        letter-spacing: -.01em;
      }

      .cls-12 {
        font-size: 21.85px;
      }

      .cls-62 {
        letter-spacing: 0em;
      }

      .cls-63 {
        letter-spacing: 0em;
      }

      .cls-64 {
        letter-spacing: -.03em;
      }

      .cls-65 {
        letter-spacing: -.01em;
      }

      .cls-66 {
        letter-spacing: 0em;
      }

      .cls-67 {
        letter-spacing: -.04em;
      }

      .cls-68 {
        letter-spacing: 0em;
      }

      .cls-69 {
        letter-spacing: -.01em;
      }

      .cls-70 {
        letter-spacing: -.01em;
      }

      .cls-71 {
        letter-spacing: 0em;
      }

      .cls-72 {
        letter-spacing: -.04em;
      }

      .cls-73 {
        letter-spacing: -.01em;
      }

      .cls-74 {
        letter-spacing: 0em;
      }

      .cls-75 {
        letter-spacing: 0em;
      }
    </style>
  </defs>
  <g>
    <g>
      <g>
        <path class="cls-9" d="M20.94,82.67c-.19-.03-3.62,1.92-3.62,1.92,0,0,5.5,1.15,13.51,3.55,0,0,1.6-2.26,2.71-3.5,0,0-4.63-.86-12.6-1.97Z"/>
        <path class="cls-9" d="M14.59,82.44c2.71-.47,5.52.08,5.52.08,0,0-4.44,2.12-8.61,4.74,0,0-3.49-1.05-6.05-1.31,0,0,6.49-3.05,9.14-3.51Z"/>
        <path class="cls-9" d="M24.16,87.01s2.59.7,6.17,1.9c0,0-2.27,3.36-3.08,4.95,0,0-2.27-1.31-6.56-3.2,0,0,.91-.97,3.47-3.65Z"/>
        <path class="cls-9" d="M12.48,87.58s1.72-1.22,4.11-2.56c0,0,2.76.55,6.79,1.75l-3.6,3.48c.04-.08-7.13-2.73-7.3-2.67Z"/>
      </g>
      <g>
        <path class="cls-9" d="M12.56,82.27l-.12.07-2.8.06-.07-.09c.45-2.28,1.09-5.63,1.57-7.92-.84,1.74-2.99,6.17-3.76,7.88l-.12.07-2.3.04-.1-.09c-.06-1.28-.3-6.53-.37-7.9-.56,2.18-1.41,5.66-1.94,7.88l-.1.07c-1.09,0-1.4.01-2.4.06l-.07-.09c.9-3.01,1.88-7.26,2.82-10.23,1.82,0,2.24,0,3.99-.04l.09.09c.04,1.75.18,4.44.28,6.2.71-1.4,2.25-5.04,2.98-6.24,1.7,0,2.13,0,3.96-.04l.07.09c-.51,2.99-1.21,7.15-1.63,10.15Z"/>
        <path class="cls-9" d="M20.96,80.74c-.67,1.63-2.8,1-3.69,1.01-4.02,1.12-4.4-3.33-2.35-5.98,4.44-3.9,8.87.64,6.04,4.96ZM18.88,77.15c-.82-3.48-3.57,3.41-1.56,3.57,1.05.22,1.6-2.81,1.56-3.57Z"/>
        <path class="cls-9" d="M21.5,81.66l.53-1.83.13-.04c.51,1.47,5.17,1.06,1.81-.63-4.3-2.65,1.55-6.31,4.66-4.16l.07.13c-.25.79-.31,1.02-.51,1.83l-.14.03c-.81-1.58-4.29-.69-1.57.47,5.21,3.38-2.18,6.64-4.93,4.35l-.03-.15Z"/>
        <path class="cls-9" d="M36.92,77.41c-.4,1.62-.75,3.21-.99,4.85l-.09.09-2.69.06-.07-.09.12-.67c-5.99,4.27-7.6-8.96,4.31-7.1l.09.12-.67,2.75ZM34.3,76.45c-2.27-.94-3.99,5.3-.89,3.81l.89-3.81Z"/>
        <path class="cls-9" d="M40.54,79.52c-.31,1.43-.35,1.73-.51,2.75l-.09.07-3.1.06-.06-.1c.68-2.61,1.3-4.83,1.62-7.36l.1-.12c1.47-.19,1.82-.25,3.13-.5l.09.1c-.14.62-1.09,4.57-1.18,5.09ZM41.88,73.33l-.12.1-2.87.42-.1-.1.5-2.33.12-.1,2.92-.39.09.1-.54,2.3Z"/>
        <path class="cls-9" d="M47.45,80.03c-.29,1.05-.32,1.24-.51,2.08-8.71,2.97-6.1-10.99,1.38-7.12l.03.12-.57,1.96-.15.02c-3.31-3.27-4.88,5.63-.34,2.88l.15.06Z"/>
      </g>
    </g>
    <path class="cls-9" d="M50.77,75.31c.02,1.23-1.92,1.23-1.9,0-.02-1.23,1.92-1.23,1.9,0ZM48.97,75.31c-.03,1.12,1.74,1.13,1.71,0,.03-1.13-1.74-1.12-1.71,0ZM49.48,74.74c.49-.16,1.22.33.5.61l.33.52h-.1l-.34-.52h-.29v.52h-.1v-1.12ZM49.58,75.26c.79.13.76-.57,0-.44v.44Z"/>
  </g>
  <rect class="cls-9" x="54.33" y="70.93" width=".78" height="22.93"/>
  <g class="cls-13">
    <text class="cls-12" transform="translate(67.08 58.93)"><tspan x="0" y="0">Di</tspan><tspan class="cls-21" x="19.66" y="0">g</tspan><tspan x="31.74" y="0">ital </tspan><tspan class="cls-63" x="64.4" y="0">A</tspan><tspan x="77.64" y="0">sset </tspan><tspan class="cls-50" x="117.75" y="0">M</tspan><tspan x="135.44" y="0">anageme</tspan><tspan class="cls-38" x="220.95" y="0">n</tspan><tspan x="232.98" y="0">t </tspan><tspan class="cls-59" x="244.84" y="0">S</tspan><tspan class="cls-21" x="255.44" y="0">y</tspan><tspan x="265.6" y="0">s</tspan><tspan class="cls-21" x="274.25" y="0">t</tspan><tspan class="cls-57" x="281.35" y="0">em</tspan></text>
  </g>
  <g class="cls-13">
    <text class="cls-10" transform="translate(67.34 118.64)"><tspan x="0" y="0">Di</tspan><tspan class="cls-45" x="20.84" y="0">g</tspan><tspan x="33.65" y="0">ital </tspan><tspan class="cls-35" x="68.27" y="0">M</tspan><tspan x="87.03" y="0">edia </tspan><tspan class="cls-37" x="133.19" y="0">M</tspan><tspan x="151.95" y="0">anager</tspan></text>
  </g>
  <g class="cls-13">
    <text class="cls-10" transform="translate(312.07 118.64)"><tspan class="cls-47" x="0" y="0">G</tspan><tspan x="15.08" y="0">e</tspan><tspan class="cls-23" x="26.68" y="0">r</tspan><tspan class="cls-46" x="34.02" y="0">enciador de </tspan><tspan class="cls-15" x="153.27" y="0">M</tspan><tspan x="172.17" y="0">ídias Di</tspan><tspan class="cls-7" x="242.16" y="0">g</tspan><tspan x="254.97" y="0">itais</tspan></text>
  </g>
  <rect class="cls-9" x="307.03" y="97.19" width=".78" height="22.93"/>
  <g class="cls-13">
    <text class="cls-8" transform="translate(61.37 163.83) scale(1.16 1)"><tspan class="cls-32" x="0" y="0">D</tspan><tspan class="cls-36" x="9.73" y="0">i</tspan><tspan class="cls-73" x="13.03" y="0">g</tspan><tspan class="cls-34" x="21.1" y="0">i</tspan><tspan class="cls-26" x="24.4" y="0">t</tspan><tspan class="cls-70" x="29.24" y="0">a</tspan><tspan class="cls-56" x="36.17" y="0">l </tspan><tspan class="cls-30" x="42.78" y="0">M</tspan><tspan class="cls-4" x="54.61" y="0">e</tspan><tspan class="cls-73" x="62" y="0">d</tspan><tspan class="cls-54" x="70.14" y="0">i</tspan><tspan x="73.4" y="0">a </tspan><tspan class="cls-62" x="83.64" y="0">M</tspan><tspan class="cls-73" x="95.43" y="0">an</tspan><tspan class="cls-66" x="110.37" y="0">a</tspan><tspan class="cls-40" x="117.35" y="0">g</tspan><tspan class="cls-6" x="125.49" y="0">e</tspan><tspan class="cls-68" x="132.76" y="0" xml:space="preserve">r   </tspan><tspan class="cls-74" x="146.98" y="0">G</tspan><tspan class="cls-71" x="156.55" y="0">e</tspan><tspan class="cls-55" x="163.83" y="0">r</tspan><tspan class="cls-71" x="168.47" y="0">en</tspan><tspan class="cls-24" x="183.81" y="0">c</tspan><tspan class="cls-3" x="190.21" y="0">i</tspan><tspan class="cls-16" x="193.47" y="0">a</tspan><tspan class="cls-49" x="200.48" y="0">do</tspan><tspan class="cls-68" x="216.69" y="0">r </tspan><tspan class="cls-49" x="224.64" y="0">d</tspan><tspan x="232.85" y="0">e </tspan><tspan class="cls-39" x="243.38" y="0">M</tspan><tspan class="cls-65" x="255.16" y="0">í</tspan><tspan class="cls-5" x="258.45" y="0">d</tspan><tspan class="cls-3" x="266.59" y="0">i</tspan><tspan class="cls-60" x="269.85" y="0">a</tspan><tspan x="276.75" y="0">s </tspan><tspan class="cls-19" x="285.72" y="0">D</tspan><tspan class="cls-61" x="295.45" y="0">i</tspan><tspan class="cls-2" x="298.75" y="0">g</tspan><tspan class="cls-28" x="306.82" y="0">i</tspan><tspan class="cls-20" x="310.12" y="0">t</tspan><tspan class="cls-14" x="314.96" y="0">a</tspan><tspan class="cls-43" x="321.89" y="0">i</tspan><tspan class="cls-68" x="325.12" y="0">s </tspan></text>
  </g>
  <g class="cls-13">
    <text class="cls-11" transform="translate(59.71 87.01) scale(1.24 1)"><tspan class="cls-25" x="0" y="0">D</tspan><tspan class="cls-67" x="9.62" y="0">i</tspan><tspan class="cls-64" x="12.64" y="0">g</tspan><tspan class="cls-27" x="19.77" y="0">i</tspan><tspan class="cls-42" x="22.9" y="0">t</tspan><tspan class="cls-17" x="27.62" y="0">a</tspan><tspan class="cls-48" x="34.84" y="0">l </tspan><tspan class="cls-41" x="41.13" y="0">A</tspan><tspan class="cls-22" x="49.91" y="0">s</tspan><tspan class="cls-52" x="56.16" y="0">s</tspan><tspan class="cls-29" x="62.36" y="0">e</tspan><tspan class="cls-51" x="69.72" y="0">t </tspan><tspan class="cls-33" x="77.45" y="0">M</tspan><tspan class="cls-72" x="89.4" y="0">a</tspan><tspan class="cls-31" x="96.63" y="0">n</tspan><tspan class="cls-1" x="104.59" y="0">a</tspan><tspan class="cls-53" x="111.83" y="0">g</tspan><tspan class="cls-18" x="118.72" y="0">e</tspan><tspan class="cls-51" x="126.06" y="0">r </tspan></text>
  </g>
  <g>
    <g>
      <g>
        <path class="cls-9" d="M22.94,159.79c-.19-.03-3.62,1.92-3.62,1.92,0,0,5.5,1.15,13.51,3.55,0,0,1.6-2.26,2.71-3.5,0,0-4.63-.86-12.6-1.97Z"/>
        <path class="cls-9" d="M16.59,159.56c2.71-.47,5.52.08,5.52.08,0,0-4.44,2.12-8.61,4.74,0,0-3.49-1.05-6.05-1.31,0,0,6.49-3.05,9.14-3.51Z"/>
        <path class="cls-9" d="M26.16,164.14s2.59.7,6.17,1.9c0,0-2.27,3.36-3.08,4.95,0,0-2.27-1.31-6.56-3.2,0,0,.91-.97,3.47-3.65Z"/>
        <path class="cls-9" d="M14.48,164.71s1.72-1.22,4.11-2.56c0,0,2.76.55,6.79,1.75l-3.6,3.48c.04-.08-7.13-2.73-7.3-2.67Z"/>
      </g>
      <g>
        <path class="cls-9" d="M14.56,159.4l-.12.07-2.8.06-.07-.09c.45-2.28,1.09-5.63,1.57-7.92-.84,1.74-2.99,6.17-3.76,7.88l-.12.07-2.3.04-.1-.09c-.06-1.28-.3-6.53-.37-7.9-.56,2.18-1.41,5.66-1.94,7.88l-.1.07c-1.09,0-1.4.01-2.4.06l-.07-.09c.9-3.01,1.88-7.26,2.82-10.23,1.82,0,2.24,0,3.99-.04l.09.09c.04,1.75.18,4.44.28,6.2.71-1.4,2.25-5.04,2.98-6.24,1.7,0,2.13,0,3.96-.04l.07.09c-.51,2.99-1.21,7.15-1.63,10.15Z"/>
        <path class="cls-9" d="M22.96,157.87c-.67,1.63-2.8,1-3.69,1.01-4.02,1.12-4.4-3.33-2.35-5.98,4.44-3.9,8.87.64,6.04,4.96ZM20.88,154.27c-.82-3.48-3.57,3.41-1.56,3.57,1.05.22,1.6-2.81,1.56-3.57Z"/>
        <path class="cls-9" d="M23.5,158.79l.53-1.83.13-.04c.51,1.47,5.17,1.06,1.81-.63-4.3-2.65,1.55-6.31,4.66-4.16l.07.13c-.25.79-.31,1.02-.51,1.83l-.14.03c-.81-1.58-4.29-.69-1.57.47,5.21,3.38-2.18,6.64-4.93,4.35l-.03-.15Z"/>
        <path class="cls-9" d="M38.92,154.54c-.4,1.62-.75,3.21-.99,4.85l-.09.09-2.69.06-.07-.09.12-.67c-5.99,4.27-7.6-8.96,4.31-7.1l.09.12-.67,2.75ZM36.29,153.57c-2.27-.94-3.99,5.3-.89,3.81l.89-3.81Z"/>
        <path class="cls-9" d="M42.54,156.65c-.31,1.43-.35,1.73-.51,2.75l-.09.07-3.1.06-.06-.1c.68-2.61,1.3-4.83,1.62-7.36l.1-.12c1.47-.19,1.82-.25,3.13-.5l.09.1c-.14.62-1.09,4.57-1.18,5.09ZM43.88,150.46l-.12.1-2.87.42-.1-.1.5-2.33.12-.1,2.92-.39.09.1-.54,2.3Z"/>
        <path class="cls-9" d="M49.45,157.16c-.29,1.05-.32,1.24-.51,2.08-8.71,2.97-6.1-10.99,1.38-7.12l.03.12-.57,1.96-.15.02c-3.31-3.27-4.88,5.63-.34,2.88l.15.06Z"/>
      </g>
    </g>
    <path class="cls-9" d="M52.77,152.43c.02,1.23-1.92,1.23-1.9,0-.02-1.23,1.92-1.23,1.9,0ZM50.97,152.43c-.03,1.12,1.74,1.13,1.71,0,.03-1.13-1.74-1.12-1.71,0ZM51.48,151.87c.49-.16,1.22.33.5.61l.33.52h-.1l-.34-.52h-.29v.52h-.1v-1.12ZM51.57,152.39c.79.13.76-.57,0-.44v.44Z"/>
  </g>
  <rect class="cls-9" x="56" y="148.06" width=".78" height="22.93"/>
  <rect class="cls-9" x="208.36" y="148.06" width=".78" height="22.93"/>
  <g class="cls-13">
    <text class="cls-8" transform="translate(68.78 12.25) scale(1.16 1)"><tspan class="cls-32" x="0" y="0">D</tspan><tspan class="cls-36" x="9.73" y="0">i</tspan><tspan class="cls-73" x="13.03" y="0">g</tspan><tspan class="cls-34" x="21.1" y="0">i</tspan><tspan class="cls-26" x="24.4" y="0">t</tspan><tspan class="cls-70" x="29.24" y="0">a</tspan><tspan class="cls-56" x="36.17" y="0">l </tspan><tspan class="cls-30" x="42.78" y="0">M</tspan><tspan class="cls-4" x="54.61" y="0">e</tspan><tspan class="cls-73" x="62" y="0">d</tspan><tspan class="cls-54" x="70.14" y="0">i</tspan><tspan x="73.4" y="0">a </tspan><tspan class="cls-62" x="83.64" y="0">M</tspan><tspan class="cls-73" x="95.43" y="0">an</tspan><tspan class="cls-66" x="110.37" y="0">a</tspan><tspan class="cls-40" x="117.35" y="0">g</tspan><tspan class="cls-6" x="125.49" y="0">e</tspan><tspan class="cls-68" x="132.76" y="0">r</tspan><tspan class="cls-75" x="0" y="17.71">G</tspan><tspan class="cls-71" x="9.58" y="17.71">e</tspan><tspan class="cls-55" x="16.85" y="17.71">r</tspan><tspan class="cls-71" x="21.49" y="17.71">en</tspan><tspan class="cls-69" x="36.84" y="17.71">c</tspan><tspan class="cls-54" x="43.23" y="17.71">i</tspan><tspan class="cls-16" x="46.49" y="17.71">a</tspan><tspan class="cls-49" x="53.5" y="17.71">do</tspan><tspan x="69.71" y="17.71">r </tspan><tspan class="cls-49" x="77.67" y="17.71">d</tspan><tspan x="85.88" y="17.71">e </tspan><tspan class="cls-44" x="96.4" y="17.71">M</tspan><tspan class="cls-58" x="108.19" y="17.71">í</tspan><tspan class="cls-2" x="111.47" y="17.71">d</tspan><tspan class="cls-3" x="119.62" y="17.71">i</tspan><tspan class="cls-60" x="122.88" y="17.71">a</tspan><tspan x="129.77" y="17.71">s </tspan><tspan class="cls-19" x="138.74" y="17.71">D</tspan><tspan class="cls-61" x="148.48" y="17.71">i</tspan><tspan class="cls-2" x="151.77" y="17.71">g</tspan><tspan class="cls-28" x="159.84" y="17.71">i</tspan><tspan class="cls-20" x="163.15" y="17.71">t</tspan><tspan class="cls-14" x="167.99" y="17.71">a</tspan><tspan class="cls-43" x="174.91" y="17.71">i</tspan><tspan x="178.14" y="17.71">s </tspan></text>
  </g>
</svg>