<?xml version="1.0" encoding="utf-8"?>
<!-- Generator: Adobe Illustrator 27.9.0, SVG Export Plug-In . SVG Version: 6.00 Build 0)  -->
<svg version="1.1" id="Layer_1" xmlns="http://www.w3.org/2000/svg" xmlns:xlink="http://www.w3.org/1999/xlink" x="0px" y="0px"
	 viewBox="0 0 86.23 56.58" style="enable-background:new 0 0 86.23 56.58;" xml:space="preserve">
<style type="text/css">
	.st0{fill:#010101;}
	.st1{fill:#989898;stroke:#8DC641;stroke-miterlimit:10;}
</style>
<g>
	<g>
		<path class="st0" d="M24.6,25.43c-0.47-0.1-0.93-0.19-1.37-0.25c-0.45-0.06-0.96-0.09-1.55-0.09c-2.93,0-5.2,0.99-6.8,2.97
			c-1.61,1.98-2.41,4.57-2.41,7.77v16.27h-8.4V19.14h8.4v6.34h0.14c0.84-2.28,2.11-4,3.8-5.17s3.68-1.74,5.98-1.74
			c0.63,0,1.22,0.03,1.76,0.09c0.54,0.06,1.05,0.16,1.55,0.28L24.6,25.43z"/>
		<path class="st0" d="M63.91,19.14L49.63,52.09H40.6L27.03,19.14h9.03l8.05,22.3c0.33,1,0.6,1.94,0.83,2.81
			c0.22,0.87,0.37,1.66,0.44,2.37h0.14c0.09-0.82,0.25-1.63,0.46-2.45c0.21-0.82,0.48-1.67,0.81-2.54l8.33-22.49H63.91z"/>
	</g>
</g>
<g>
	<line class="st1" x1="69.95" y1="12.11" x2="69.95" y2="2.09"/>
	<line class="st1" x1="69.91" y1="28.29" x2="69.91" y2="18.28"/>
	<line class="st1" x1="55.07" y1="14.93" x2="65.49" y2="14.93"/>
	<line class="st1" x1="73.12" y1="14.93" x2="83.54" y2="14.93"/>
</g>
</svg>
