<?xml version="1.0" encoding="UTF-8"?>
<svg xmlns="http://www.w3.org/2000/svg" version="1.1" xmlns:xlink="http://www.w3.org/1999/xlink" viewBox="0 0 140.8 47.6">
  <defs>
    <style>
      .cls-1 {
        fill: #010101;
      }

      .cls-2, .cls-3 {
        fill: none;
      }

      .cls-3 {
        stroke: #010101;
        stroke-miterlimit: 10;
        stroke-width: 6px;
      }

      .cls-4 {
        clip-path: url(#clippath);
      }
    </style>
    <clipPath id="clippath">
      <rect class="cls-2" x="17.7" y="22.1" width="66.5" height="6"/>
    </clipPath>
  </defs>
  <!-- Generator: Adobe Illustrator 28.7.1, SVG Export Plug-In . SVG Version: 1.2.0 Build 142)  -->
  <g>
    <g id="Layer_1">
      <path class="cls-1" d="M33.4,28h-13.7v13.9h-5.7v-13.9H.2v-5.9h13.7v-13.9h5.7v13.9h13.7v5.9h0Z"/>
      <g>
        <path class="cls-1" d="M103.5,15.8c-.5-.1-.9-.2-1.3-.2-.4,0-.9,0-1.5,0-2.9,0-5.1,1-6.7,3s-2.4,4.6-2.4,7.8v16.3h-8.3V9.5h8.3v6.3h.1c.8-2.3,2.1-4,3.7-5.2s3.6-1.7,5.9-1.7,1.2,0,1.7,0c.5,0,1,.2,1.5.3l-1.1,6.5Z"/>
        <path class="cls-1" d="M140.8,9.5l-14,32.9h-8.9l-13.4-32.9h8.9l7.9,22.3c.3,1,.6,1.9.8,2.8.2.9.4,1.7.4,2.4h.1c0-.8.2-1.6.4-2.5s.5-1.7.8-2.5l8.2-22.5s8.7,0,8.7,0Z"/>
      </g>
      <path class="cls-1" d="M27.9,38.9l-10.1-9.3-9.2,10.3-4.3-3.9,9.1-10.3L3.3,16.3l3.9-4.4,10.1,9.3,9.2-10.3,4.3,3.9-9.2,10.3,10.1,9.3-3.9,4.4Z"/>
      <g id="_x3C_Mirror_Repeat_x3E_">
        <g class="cls-4">
          <line class="cls-3" x1="17.7" y1="25.1" x2="84.2" y2="25.1"/>
        </g>
      </g>
    </g>
  </g>
</svg>