<?xml version="1.0" encoding="utf-8"?>
<!-- Generator: Adobe Illustrator 27.9.0, SVG Export Plug-In . SVG Version: 6.00 Build 0)  -->
<svg version="1.1" id="Layer_1" xmlns="http://www.w3.org/2000/svg" xmlns:xlink="http://www.w3.org/1999/xlink" x="0px" y="0px"
	 viewBox="0 0 140.8 47.57" style="enable-background:new 0 0 140.8 47.57;" xml:space="preserve">
<style type="text/css">
	.st0{fill:#010101;}
	
		.st1{clip-path:url(#SVGID_00000072961847934997560040000014688097634428293808_);fill:#010101;stroke:#010101;stroke-width:6;stroke-miterlimit:10;}
	
		.st2{clip-path:url(#SVGID_00000092413864827829148310000013184227734726408583_);fill:#010101;stroke:#010101;stroke-width:6;stroke-miterlimit:10;}
</style>
<g>
	<g>
		<path class="st0" d="M33.36,28.03h-13.7v13.85h-5.74V28.03H0.25v-5.91h13.66V8.23h5.74v13.89h13.7V28.03z"/>
	</g>
</g>
<g>
	<g>
		<path class="st0" d="M103.48,15.81c-0.46-0.1-0.91-0.19-1.35-0.25c-0.44-0.06-0.95-0.09-1.52-0.09c-2.88,0-5.11,0.99-6.69,2.97
			c-1.58,1.98-2.37,4.57-2.37,7.77v16.27h-8.27V9.53h8.27v6.34h0.14c0.83-2.28,2.08-4,3.74-5.17s3.62-1.74,5.88-1.74
			c0.62,0,1.2,0.03,1.73,0.09c0.53,0.06,1.04,0.16,1.52,0.28L103.48,15.81z"/>
		<path class="st0" d="M140.8,9.53l-14.04,32.95h-8.89L104.52,9.53h8.89l7.92,22.3c0.32,1,0.59,1.94,0.81,2.81
			c0.22,0.87,0.36,1.66,0.43,2.37h0.14c0.09-0.82,0.24-1.63,0.45-2.45c0.21-0.82,0.47-1.67,0.79-2.54l8.2-22.49H140.8z"/>
	</g>
</g>
<g>
	<g>
		<path class="st0" d="M27.86,38.86l-10.15-9.34L8.56,39.78L4.3,35.86l9.15-10.27L3.32,16.27l3.9-4.38l10.13,9.32l9.17-10.29
			l4.26,3.92l-9.17,10.29l10.15,9.34L27.86,38.86z"/>
	</g>
</g>
<g>
	<g id="_x3C_Mirror_Repeat_x3E__00000057147669349584470230000015155760570900563888_">
		<g>
			<defs>
				<rect id="SVGID_1_" x="17.74" y="22.1" width="32.77" height="6"/>
			</defs>
			<clipPath id="SVGID_00000005249668873581496370000006304135120722275764_">
				<use xlink:href="#SVGID_1_"  style="overflow:visible;"/>
			</clipPath>
			
				<line style="clip-path:url(#SVGID_00000005249668873581496370000006304135120722275764_);fill:#010101;stroke:#010101;stroke-width:6;stroke-miterlimit:10;" x1="17.74" y1="25.1" x2="50.51" y2="25.1"/>
		</g>
	</g>
	<g id="_x3C_Mirror_Repeat_x3E__00000113321388676120884350000016011595126412135355_">
		<g>
			<defs>
				<rect id="SVGID_00000163770384751859057190000009736897788674309563_" x="50.51" y="22.1" width="32.77" height="6"/>
			</defs>
			<clipPath id="SVGID_00000163073568084596084760000007828900495150194052_">
				<use xlink:href="#SVGID_00000163770384751859057190000009736897788674309563_"  style="overflow:visible;"/>
			</clipPath>
			
				<line style="clip-path:url(#SVGID_00000163073568084596084760000007828900495150194052_);fill:#010101;stroke:#010101;stroke-width:6;stroke-miterlimit:10;" x1="83.27" y1="25.1" x2="50.51" y2="25.1"/>
		</g>
	</g>
</g>
</svg>
